<svg width="17" height="21" viewBox="0 0 17 21" fill="none" xmlns="http://www.w3.org/2000/svg">
<path d="M4.8616 10.4218C5.00243 10.3693 5.15388 10.3421 5.30699 10.3416C5.46009 10.3411 5.61176 10.3674 5.75302 10.419C5.89428 10.4706 6.02226 10.5463 6.1294 10.6418C6.23654 10.7373 6.32067 10.8506 6.37681 10.9749C6.43295 11.0993 6.45995 11.2322 6.45624 11.3659C6.45252 11.4995 6.41815 11.6311 6.35517 11.7529C6.29219 11.8748 6.20186 11.9844 6.08954 12.0752C5.97722 12.166 5.84517 12.2363 5.70122 12.2818C4.93553 12.5452 4.27837 13.0037 3.81524 13.5976C3.35211 14.1915 3.10446 14.8933 3.10449 15.6118V17.3518C3.10449 17.617 3.22517 17.8714 3.43998 18.0589C3.6548 18.2465 3.94614 18.3518 4.24994 18.3518H13.4135C13.7173 18.3518 14.0086 18.2465 14.2235 18.0589C14.4383 17.8714 14.5589 17.617 14.5589 17.3518V15.7048C14.5591 14.9633 14.3011 14.2392 13.8191 13.6286C13.3372 13.018 12.654 12.5497 11.8603 12.2858C11.7154 12.2419 11.5821 12.1731 11.4683 12.0834C11.3545 11.9937 11.2625 11.885 11.1977 11.7637C11.1329 11.6424 11.0966 11.5109 11.0911 11.3771C11.0856 11.2434 11.1109 11.11 11.1655 10.9849C11.2201 10.8598 11.3029 10.7456 11.409 10.649C11.5151 10.5524 11.6424 10.4753 11.7832 10.4224C11.9241 10.3695 12.0757 10.3419 12.229 10.3411C12.3823 10.3403 12.5343 10.3664 12.6758 10.4178C13.9033 10.826 14.9597 11.5501 15.7051 12.4943C16.4505 13.4385 16.8497 14.5581 16.8498 15.7048V17.3518C16.8498 18.1475 16.4878 18.9105 15.8434 19.4731C15.1989 20.0357 14.3249 20.3518 13.4135 20.3518H4.24994C3.33856 20.3518 2.46452 20.0357 1.82008 19.4731C1.17564 18.9105 0.813599 18.1475 0.813599 17.3518L0.813599 15.6118C0.813756 14.492 1.19993 13.3981 1.92189 12.4724C2.64384 11.5468 3.66816 10.8323 4.8616 10.4218ZM8.83172 0.351807C10.0469 0.351807 11.2123 0.773234 12.0715 1.52338C12.9308 2.27352 13.4135 3.29094 13.4135 4.35181V6.35181C13.4135 7.41267 12.9308 8.43009 12.0715 9.18023C11.2123 9.93038 10.0469 10.3518 8.83172 10.3518C7.61655 10.3518 6.45116 9.93038 5.59191 9.18023C4.73266 8.43009 4.24994 7.41267 4.24994 6.35181V4.35181C4.24994 3.29094 4.73266 2.27352 5.59191 1.52338C6.45116 0.773234 7.61655 0.351807 8.83172 0.351807ZM8.83172 2.35181C8.22414 2.35181 7.64144 2.56252 7.21181 2.93759C6.78219 3.31267 6.54083 3.82137 6.54083 4.35181V6.35181C6.54083 6.88224 6.78219 7.39095 7.21181 7.76602C7.64144 8.14109 8.22414 8.35181 8.83172 8.35181C9.4393 8.35181 10.022 8.14109 10.4516 7.76602C10.8812 7.39095 11.1226 6.88224 11.1226 6.35181V4.35181C11.1226 3.82137 10.8812 3.31267 10.4516 2.93759C10.022 2.56252 9.4393 2.35181 8.83172 2.35181Z" fill="#181725"/>
</svg>
