<svg width="23" height="21" viewBox="0 0 23 21" fill="none" xmlns="http://www.w3.org/2000/svg">
<path d="M9.17772 20.3517C8.52916 20.3517 7.90718 20.0941 7.44858 19.6355C6.98999 19.1769 6.73235 18.5549 6.73235 17.9064C6.73235 17.2578 6.98999 16.6358 7.44858 16.1772C7.90718 15.7186 8.52916 15.461 9.17772 15.461C9.82627 15.461 10.4483 15.7186 10.9068 16.1772C11.3654 16.6358 11.6231 17.2578 11.6231 17.9064C11.6231 18.5549 11.3654 19.1769 10.9068 19.6355C10.4483 20.0941 9.82627 20.3517 9.17772 20.3517ZM17.7365 20.3517C17.0879 20.3517 16.466 20.0941 16.0074 19.6355C15.5488 19.1769 15.2911 18.5549 15.2911 17.9064C15.2911 17.2578 15.5488 16.6358 16.0074 16.1772C16.466 15.7186 17.0879 15.461 17.7365 15.461C18.385 15.461 19.007 15.7186 19.4656 16.1772C19.9242 16.6358 20.1819 17.2578 20.1819 17.9064C20.1819 18.5549 19.9242 19.1769 19.4656 19.6355C19.007 20.0941 18.385 20.3517 17.7365 20.3517ZM1.79516 3.14004C1.48993 3.13019 1.2005 3.00202 0.988068 2.78262C0.775635 2.56323 0.65686 2.26981 0.65686 1.96443C0.65686 1.65904 0.775635 1.36562 0.988068 1.14623C1.2005 0.926835 1.48993 0.798663 1.79516 0.788818L3.20247 0.788818C4.30533 0.788818 5.25902 1.55422 5.49867 2.63018L7.03069 9.52855C7.27033 10.6045 8.22402 11.3699 9.32688 11.3699H18.5117L20.2748 4.31503H8.84881C8.54646 4.30124 8.26106 4.17142 8.05197 3.95257C7.84289 3.73373 7.72621 3.44271 7.72621 3.14004C7.72621 2.83737 7.84289 2.54634 8.05197 2.3275C8.26106 2.10866 8.54646 1.97884 8.84881 1.96504H20.2748C20.6322 1.96493 20.985 2.04632 21.3062 2.20301C21.6275 2.35971 21.9088 2.58758 22.1287 2.86931C22.3487 3.15105 22.5015 3.47922 22.5756 3.82889C22.6497 4.17856 22.6431 4.54052 22.5563 4.88725L20.7932 11.9397C20.6661 12.4486 20.3725 12.9003 19.9591 13.2231C19.5457 13.5459 19.0362 13.7212 18.5117 13.7211H9.32688C8.25678 13.7213 7.21864 13.3564 6.3839 12.6869C5.54917 12.0173 4.96776 11.083 4.73571 10.0384L3.20247 3.14004H1.79516Z" fill="#181725"/>
</svg>
