<svg width="24" height="20" viewBox="0 0 24 20" fill="none" xmlns="http://www.w3.org/2000/svg">
<path d="M3.93092 8.84343L11.755 16.6675L19.5791 8.84343C20.2709 8.15168 20.6595 7.21347 20.6595 6.23519C20.6595 5.25691 20.2709 4.3187 19.5791 3.62696C19.2366 3.28444 18.83 3.01274 18.3825 2.82737C17.9349 2.642 17.4553 2.54659 16.9709 2.54659C15.9926 2.54659 15.0544 2.93521 14.3626 3.62696L11.755 6.23458L9.1474 3.62818C8.45389 2.94572 7.5188 2.56494 6.54581 2.56878C5.57283 2.57263 4.64078 2.96079 3.95269 3.64872C3.26459 4.33665 2.87621 5.26861 2.87213 6.2416C2.86806 7.21458 3.24862 8.14976 3.93092 8.84343ZM10.8858 1.88731L11.755 2.75652L12.6242 1.88731C13.1941 1.31239 13.872 0.855699 14.6189 0.543454C15.3657 0.231209 16.1669 0.0695598 16.9765 0.0677872C17.786 0.0660145 18.5879 0.224153 19.3361 0.533125C20.0844 0.842096 20.7642 1.29581 21.3366 1.86823C21.909 2.44065 22.3628 3.12049 22.6717 3.86873C22.9807 4.61697 23.1388 5.41887 23.1371 6.22839C23.1353 7.03791 22.9736 7.8391 22.6614 8.58598C22.3491 9.33286 21.8925 10.0107 21.3175 10.5806L12.6255 19.2739C12.5113 19.3882 12.3757 19.4789 12.2264 19.5408C12.0772 19.6027 11.9172 19.6345 11.7556 19.6345C11.5941 19.6345 11.4341 19.6027 11.2848 19.5408C11.1356 19.4789 11 19.3882 10.8858 19.2739L2.19251 10.5818C1.60977 10.0138 1.14563 9.33565 0.827013 8.5868C0.508396 7.83795 0.341644 7.03329 0.33643 6.2195C0.331216 5.4057 0.487643 4.59897 0.796639 3.84611C1.10563 3.09324 1.56105 2.40922 2.13646 1.83373C2.71187 1.25823 3.39582 0.802726 4.14865 0.493624C4.90147 0.184522 5.70818 0.0279806 6.52198 0.0330797C7.33577 0.0381787 8.14045 0.204817 8.88935 0.523328C9.63824 0.841839 10.3164 1.30588 10.8846 1.88854L10.8858 1.88731Z" fill="#181725"/>
</svg>
