<svg width="55" height="65" viewBox="0 0 55 65" fill="none" xmlns="http://www.w3.org/2000/svg">
<path fill-rule="evenodd" clip-rule="evenodd" d="M37.4907 5.64232C37.7637 3.20288 36.0343 1.0001 33.5948 0.72703C31.1554 0.435753 28.9526 2.18341 28.6796 4.62285C28.3519 7.40818 28.807 10.7397 29.3895 14.1622C31.0098 14.6537 32.5754 15.3637 34.0318 16.2011C35.5974 12.5055 37.1266 8.84636 37.4907 5.64232ZM54.6214 16.3467C53.6565 14.0893 51.035 13.0699 48.7776 14.0347C45.8103 15.3273 42.7336 17.8577 39.6388 20.461C40.8039 21.6079 41.8962 22.9005 42.8247 24.3022C46.3382 23.8653 49.7061 23.3374 52.3094 22.2087C54.5668 21.2074 55.6044 18.5859 54.6214 16.3467ZM47.1392 4.4408C45.1731 2.98442 42.3878 3.38493 40.9314 5.35104C38.7104 8.33663 37.2176 12.7968 35.5974 17.1477C36.1435 17.5118 36.6532 17.8759 37.1448 18.2582C37.5089 18.5495 37.8912 18.859 38.2735 19.1685C41.9872 16.3649 45.8467 13.6342 48.0676 10.6486C49.524 8.68252 49.1053 5.89719 47.1392 4.4408Z" fill="white"/>
<path d="M38.6921 40.0858C37.3268 41.5604 35.8704 42.9257 34.323 44.2547C32.1566 46.1298 29.9538 47.9502 27.7146 49.6979C25.3116 48.2233 23.5822 47.4769 23.2909 47.8592C23.036 48.2051 24.0373 49.4794 25.8395 51.1361C19.7956 55.6327 13.4057 59.6013 6.54248 62.86C5.46839 63.3697 4.3397 63.7338 3.22921 64.1343C2.93793 64.2435 2.62845 64.2435 2.50101 64.2617C0.753356 64.462 0.225417 63.9886 0.298236 62.3866C0.516694 57.3985 2.0641 52.7199 3.66612 48.0595C4.10304 46.7851 4.55816 45.5108 5.03148 44.2365C7.45272 45.711 9.18217 46.4757 9.47345 46.0933C9.78293 45.6746 8.32654 43.9998 5.8871 41.9062C7.63476 37.3915 9.58267 32.9495 11.8765 28.6896C16.4641 32.0939 20.542 34.3331 20.9971 33.7141C21.4522 33.0951 18.0843 29.8001 13.4421 26.3594L13.2418 26.2137C14.0428 24.8484 14.8803 23.483 15.7723 22.1541C16.8828 20.4792 18.2481 18.95 19.5953 17.4572C21.3976 15.4729 23.7278 14.7993 26.3311 15.3819C34.6689 17.2388 40.458 22.0266 43.1887 30.237C43.7348 31.9118 43.2433 33.5503 42.3877 35.0613C41.8051 36.0807 41.168 37.0456 40.458 37.9558C36.0524 34.7336 32.2294 32.6582 31.7925 33.2408C31.3738 33.8233 34.414 36.8271 38.6921 40.0858Z" fill="white"/>
</svg>
