<svg width="273" height="241" viewBox="0 0 273 241" fill="none" xmlns="http://www.w3.org/2000/svg">
<path d="M229.132 50.8538C237.041 51.6227 253.584 49.0742 256.485 32.7287C259.385 16.3832 267.14 11.8574 270.656 11.6377" stroke="#F3603F" stroke-width="3" stroke-linecap="round"/>
<circle cx="158.897" cy="117.527" r="79.0761" fill="#53B175"/>
<g filter="url(#filter0_d_41_1407)">
<circle cx="158.897" cy="117.527" r="68.1416" stroke="white" stroke-opacity="0.7" stroke-width="2"/>
</g>
<path d="M194.037 100.227C194.037 102.381 193.192 104.46 191.656 105.944L155.94 140.543C154.327 142.028 152.176 142.919 149.948 142.919C147.721 142.919 145.57 142.028 144.034 140.543L126.137 123.244C124.601 121.759 123.756 119.68 123.756 117.527C123.756 115.374 124.678 113.369 126.214 111.81C127.827 110.325 129.901 109.508 132.128 109.434C134.356 109.434 136.43 110.251 138.043 111.736L149.948 123.244L179.751 94.4362C181.364 92.9512 183.438 92.1345 185.665 92.1345C187.893 92.2088 189.966 93.0255 191.579 94.5847C193.116 96.0696 194.037 98.0743 194.037 100.227Z" fill="white"/>
<path d="M218.104 196.603C225.486 198.736 239.758 206.839 237.789 222.193" stroke="#F7B23B" stroke-width="3" stroke-linecap="round" stroke-linejoin="round"/>
<path d="M1.57764 174.935C12.9059 179.202 37.3279 182.262 44.3898 160.37M44.3898 160.37C45.4197 154.338 44.39 142.407 32.0319 142.936C29.6778 148.748 28.8538 160.37 44.3898 160.37ZM44.3898 160.37C49.5391 161.327 61.5148 160.414 68.2235 149.116" stroke="#6E89FA" stroke-width="3" stroke-linecap="round" stroke-linejoin="round"/>
<circle cx="181.348" cy="233.423" r="7.57962" fill="#637BFE"/>
<circle cx="253.002" cy="113.396" r="7.07962" stroke="#C05EFD"/>
<circle cx="132.684" cy="8.99588" r="8.30033" fill="#53B175"/>
<circle cx="156.25" cy="23.0058" r="4.38348" fill="#F3603F"/>
<circle cx="59.6365" cy="87.381" r="7.18199" stroke="#F7B23B"/>
<circle cx="77.2814" cy="208.512" r="7.94695" stroke="#53B175"/>
<circle cx="4.03543" cy="4.03543" r="4.03543" transform="matrix(-1 0 0 1 161.816 220.695)" fill="#53B175"/>
<defs>
<filter id="filter0_d_41_1407" x="85.7552" y="47.3855" width="146.283" height="146.283" filterUnits="userSpaceOnUse" color-interpolation-filters="sRGB">
<feFlood flood-opacity="0" result="BackgroundImageFix"/>
<feColorMatrix in="SourceAlpha" type="matrix" values="0 0 0 0 0 0 0 0 0 0 0 0 0 0 0 0 0 0 127 0" result="hardAlpha"/>
<feOffset dy="3"/>
<feGaussianBlur stdDeviation="2"/>
<feColorMatrix type="matrix" values="0 0 0 0 0 0 0 0 0 0 0 0 0 0 0 0 0 0 0.12 0"/>
<feBlend mode="normal" in2="BackgroundImageFix" result="effect1_dropShadow_41_1407"/>
<feBlend mode="normal" in="SourceGraphic" in2="effect1_dropShadow_41_1407" result="shape"/>
</filter>
</defs>
</svg>
