<svg width="23" height="16" viewBox="0 0 23 16" fill="none" xmlns="http://www.w3.org/2000/svg">
<path d="M21.1414 0H11.3168H1.49224C0.949646 0 0.509766 0.43988 0.509766 0.98247V15.0175C0.509766 15.5601 0.949646 16 1.49224 16H11.3168H21.1414C21.684 16 22.1239 15.5601 22.1239 15.0175V0.98247C22.1239 0.43988 21.684 0 21.1414 0Z" fill="#5286F9"/>
<path d="M12.0677 5.2042C12.2836 5.45158 12.4717 5.72387 12.6264 6.0165C12.94 6.60924 13.1184 7.28405 13.1184 8.00002C13.1184 8.71599 12.94 9.39071 12.6264 9.98353C12.4717 10.2762 12.2836 10.5484 12.0677 10.7958C11.8455 11.0503 11.5936 11.2781 11.3173 11.4741C12.0119 11.9665 12.8591 12.2573 13.7734 12.2573C16.1209 12.2573 18.0308 10.3475 18.0308 8.00002C18.0308 5.65257 16.1209 3.74268 13.7734 3.74268C12.8591 3.74268 12.0119 4.03337 11.3173 4.52589C11.5935 4.72185 11.8454 4.94969 12.0677 5.2042Z" fill="#FFB655"/>
<path d="M12.6268 6.01642C12.472 5.7237 12.2839 5.4515 12.068 5.20412C11.8456 4.94952 11.5939 4.72181 11.3176 4.52589C10.6231 4.03337 9.77576 3.74268 8.86143 3.74268C6.51393 3.74268 4.60413 5.65253 4.60413 7.99998C4.60413 10.3474 6.51398 12.2573 8.86143 12.2573C9.77576 12.2573 10.6231 11.9665 11.3176 11.4741C11.5939 11.2781 11.8457 11.0503 12.068 10.7958C12.2839 10.5484 12.472 10.2761 12.6268 9.98357C12.9403 9.39075 13.1188 8.71594 13.1188 8.00006C13.1188 7.28392 12.9403 6.60916 12.6268 6.01642Z" fill="#D8143A"/>
<path d="M8.86066 12.2574C6.51316 12.2574 4.60336 10.3476 4.60336 8.00013C4.60336 5.65268 6.51321 3.74283 8.86066 3.74283C9.77499 3.74283 10.6222 4.03352 11.3168 4.52604V0H1.49224C0.949646 0 0.509766 0.43988 0.509766 0.98247V15.0175C0.509766 15.5601 0.949646 16 1.49224 16H11.3168V11.4741C10.6222 11.9666 9.77499 12.2574 8.86066 12.2574Z" fill="#3D6DEB"/>
</svg>
