<svg width="268" height="70" viewBox="0 0 268 70" fill="none" xmlns="http://www.w3.org/2000/svg">
<path fill-rule="evenodd" clip-rule="evenodd" d="M37.4907 5.64232C37.7637 3.20288 36.0343 1.0001 33.5948 0.72703C31.1554 0.435753 28.9526 2.18341 28.6796 4.62285C28.3519 7.40818 28.807 10.7397 29.3895 14.1622C31.0098 14.6537 32.5754 15.3637 34.0318 16.2011C35.5974 12.5055 37.1266 8.84636 37.4907 5.64232ZM54.6214 16.3467C53.6565 14.0893 51.035 13.0699 48.7776 14.0347C45.8103 15.3273 42.7336 17.8577 39.6388 20.461C40.8039 21.6079 41.8962 22.9005 42.8247 24.3022C46.3382 23.8653 49.7061 23.3374 52.3094 22.2087C54.5668 21.2074 55.6044 18.5859 54.6214 16.3467ZM47.1392 4.4408C45.1731 2.98442 42.3878 3.38493 40.9314 5.35104C38.7104 8.33663 37.2176 12.7968 35.5974 17.1477C36.1435 17.5118 36.6532 17.8759 37.1448 18.2582C37.5089 18.5495 37.8912 18.859 38.2735 19.1685C41.9872 16.3649 45.8467 13.6342 48.0676 10.6486C49.524 8.68252 49.1053 5.89719 47.1392 4.4408Z" fill="white"/>
<path d="M38.6921 40.0858C37.3268 41.5604 35.8704 42.9257 34.323 44.2547C32.1566 46.1298 29.9538 47.9502 27.7146 49.6979C25.3116 48.2233 23.5822 47.4769 23.2909 47.8592C23.036 48.2051 24.0373 49.4794 25.8395 51.1361C19.7956 55.6327 13.4057 59.6013 6.54248 62.86C5.46839 63.3697 4.3397 63.7338 3.22921 64.1343C2.93793 64.2435 2.62845 64.2435 2.50101 64.2617C0.753356 64.462 0.225417 63.9886 0.298236 62.3866C0.516694 57.3985 2.0641 52.7199 3.66612 48.0595C4.10304 46.7851 4.55816 45.5108 5.03148 44.2365C7.45272 45.711 9.18217 46.4757 9.47345 46.0933C9.78293 45.6746 8.32654 43.9998 5.8871 41.9062C7.63476 37.3915 9.58267 32.9495 11.8765 28.6896C16.4641 32.0939 20.542 34.3331 20.9971 33.7141C21.4522 33.0951 18.0843 29.8001 13.4421 26.3594L13.2418 26.2137C14.0428 24.8484 14.8803 23.483 15.7723 22.1541C16.8828 20.4792 18.2481 18.95 19.5953 17.4572C21.3976 15.4729 23.7278 14.7993 26.3311 15.3819C34.6689 17.2388 40.458 22.0266 43.1887 30.237C43.7348 31.9118 43.2433 33.5503 42.3877 35.0613C41.8051 36.0807 41.168 37.0456 40.458 37.9558C36.0524 34.7336 32.2294 32.6582 31.7925 33.2408C31.3738 33.8233 34.414 36.8271 38.6921 40.0858Z" fill="white"/>
<path d="M92.3962 10.4026C86.6253 10.4026 82.8751 12.7146 80.5995 17.1019H80.4721V14.3712C80.4721 12.4051 78.8701 10.8213 76.9039 10.8213C74.9378 10.8213 73.354 12.4051 73.354 14.3712V44.573C73.354 46.5391 74.9378 48.1411 76.9039 48.1411H77.2498C79.2159 48.1411 80.818 46.5391 80.818 44.573V26.5866C80.818 20.7065 84.1858 16.7925 89.8111 16.7925C95.2726 16.7925 97.894 19.9601 97.894 25.6218V44.573C97.894 46.5391 99.4779 48.1411 101.444 48.1411H101.79C103.756 48.1411 105.34 46.5391 105.34 44.573V24.22C105.34 15.6274 100.643 10.4026 92.3962 10.4026Z" fill="white"/>
<path d="M128.369 10.3298C117.937 10.3298 111.129 17.9394 111.129 29.6087C111.129 41.2962 117.865 48.5781 128.678 48.5781C135.378 48.5781 140.912 45.6107 143.406 40.9867C144.334 39.2936 143.06 37.2001 141.13 37.2001H139.237C138.29 37.2001 137.471 37.7462 136.98 38.5654C135.542 41.0413 132.52 42.5341 128.824 42.5341C122.707 42.5341 118.647 38.2742 118.647 31.8115V31.3746H142.496C143.916 31.3746 145.081 30.2095 145.081 28.7895V28.7531C145.081 17.4479 138.618 10.3298 128.369 10.3298ZM118.684 26.077C119.103 20.3425 122.98 16.4102 128.351 16.4102C133.776 16.4102 137.453 20.2696 137.617 26.077H118.684Z" fill="white"/>
<path d="M179.797 35.5981H177.813C176.739 35.5981 175.811 36.2716 175.41 37.2729C174.118 40.568 171.168 42.3338 166.981 42.3338C160.992 42.3338 156.95 37.5096 156.95 29.4813C156.95 21.635 160.937 16.6287 166.945 16.6287C171.278 16.6287 174.172 18.7769 175.355 21.8353C175.756 22.8547 176.684 23.5647 177.795 23.5647H179.779C181.509 23.5647 182.801 21.8717 182.237 20.2332C180.325 14.608 174.864 10.3298 166.872 10.3298C156.331 10.3298 149.377 17.8666 149.377 29.4813C149.377 41.2962 156.35 48.5781 166.945 48.5781C174.536 48.5781 180.18 44.8643 182.255 38.9842C182.838 37.3275 181.563 35.5981 179.797 35.5981Z" fill="white"/>
<path d="M202.153 42.2792C202.025 42.261 201.88 42.2428 201.752 42.2428C199.295 41.9515 198.148 40.4223 198.148 37.546V16.7015H202.353C203.991 16.7015 205.302 15.3726 205.302 13.7523C205.302 12.1321 203.991 10.8214 202.353 10.8214H198.148V6.14273C198.148 5.12326 197.729 4.19482 197.055 3.52124C196.382 2.84766 195.472 2.42896 194.434 2.42896C192.395 2.42896 190.738 4.10379 190.738 6.14273V10.8214H188.517C186.897 10.8214 185.568 12.1321 185.568 13.7523C185.568 15.3726 186.897 16.7015 188.517 16.7015H190.738V38.3106C190.738 45.5197 193.615 48.3778 201.079 48.3778C201.097 48.3778 201.115 48.3778 201.115 48.3778C201.971 48.3778 202.754 48.123 203.409 47.6678C203.427 47.6678 203.445 47.6496 203.445 47.6496C204.21 47.1035 204.72 46.2115 204.72 45.2102C204.72 43.7174 203.609 42.4613 202.153 42.2792Z" fill="white"/>
<path d="M226.365 10.3298C220.54 10.3298 215.734 12.6965 213.276 16.3556C212.875 16.9746 212.675 17.6482 212.675 18.3035C212.675 20.124 214.132 21.817 216.189 21.817C217.39 21.817 218.537 21.1799 219.101 20.124C220.303 17.8666 222.87 16.4831 226.165 16.4831C231.153 16.4831 233.993 18.8315 233.993 23.0914V23.5465C233.993 24.9119 232.937 26.0406 231.572 26.1134L223.926 26.5503C214.714 27.1328 209.671 30.9194 209.671 37.455C209.671 44.1179 214.823 48.5053 222.287 48.5053C227.366 48.5053 232.009 45.9748 234.066 41.9151H234.23V44.573C234.23 45.5561 234.63 46.4481 235.267 47.1035C235.923 47.7407 236.815 48.1412 237.798 48.1412C239.764 48.1412 241.348 46.5391 241.348 44.573V22.5452C241.348 15.1541 235.468 10.3298 226.365 10.3298ZM233.993 34.1235C233.993 39.0206 229.806 42.5705 224.272 42.5705C219.975 42.5705 217.19 40.5134 217.19 37.3093C217.19 34.0143 219.848 32.121 224.927 31.8115L233.993 31.1925V34.1235Z" fill="white"/>
<path d="M265.105 10.439C260.699 10.439 257.277 12.9512 256.094 17.1019H255.966V14.3712C255.966 12.4051 254.364 10.8213 252.416 10.8213C250.45 10.8213 248.848 12.4051 248.848 14.3712V44.4091C248.848 45.4286 249.267 46.3752 249.94 47.0488C250.614 47.7224 251.542 48.1411 252.58 48.1411C254.637 48.1411 256.312 46.4662 256.312 44.4091V25.8766C256.312 20.6154 259.407 17.2111 264.322 17.2111C264.522 17.2111 264.741 17.2111 264.941 17.2293C266.47 17.284 267.708 16.0278 267.708 14.4986V13.0605C267.708 11.6223 266.543 10.439 265.105 10.439Z" fill="white"/>
<path d="M204.72 45.2103C204.72 46.2116 204.21 47.1036 203.445 47.6497C203.445 47.6497 203.427 47.6679 203.409 47.6679C202.936 47.9956 202.371 48.1777 201.752 48.1777C200.096 48.1777 198.767 46.8487 198.767 45.2103C198.767 43.5719 200.096 42.2429 201.752 42.2429C201.88 42.2429 202.026 42.2611 202.153 42.2793C203.609 42.4614 204.72 43.7175 204.72 45.2103Z" fill="white"/>
<path d="M74.8063 65.4309C74.0877 65.4309 73.4343 65.2676 72.8463 64.9409C72.2677 64.6143 71.8103 64.1523 71.4743 63.5549C71.1477 62.9483 70.9843 62.2483 70.9843 61.4549C70.9843 60.6709 71.1523 59.9803 71.4883 59.3829C71.8337 58.7763 72.3003 58.3143 72.8883 57.9969C73.4763 57.6703 74.1343 57.5069 74.8623 57.5069C75.5903 57.5069 76.2483 57.6703 76.8363 57.9969C77.4243 58.3143 77.8863 58.7716 78.2223 59.3689C78.5677 59.9663 78.7403 60.6616 78.7403 61.4549C78.7403 62.2483 78.563 62.9483 78.2083 63.5549C77.863 64.1523 77.3917 64.6143 76.7943 64.9409C76.197 65.2676 75.5343 65.4309 74.8063 65.4309ZM74.8063 64.3109C75.2637 64.3109 75.693 64.2036 76.0943 63.9889C76.4957 63.7743 76.8177 63.4523 77.0603 63.0229C77.3123 62.5936 77.4383 62.0709 77.4383 61.4549C77.4383 60.8389 77.317 60.3163 77.0743 59.8869C76.8317 59.4576 76.5143 59.1403 76.1223 58.9349C75.7303 58.7203 75.3057 58.6129 74.8483 58.6129C74.3817 58.6129 73.9523 58.7203 73.5603 58.9349C73.1777 59.1403 72.8697 59.4576 72.6363 59.8869C72.403 60.3163 72.2863 60.8389 72.2863 61.4549C72.2863 62.0803 72.3983 62.6076 72.6223 63.0369C72.8557 63.4663 73.1637 63.7883 73.5463 64.0029C73.929 64.2083 74.349 64.3109 74.8063 64.3109ZM89.6534 57.4929C90.5867 57.4929 91.3427 57.7776 91.9214 58.3469C92.5001 58.9069 92.7894 59.7189 92.7894 60.7829V65.3049H91.5294V60.9649C91.5294 60.1996 91.3381 59.6163 90.9554 59.2149C90.5727 58.8043 90.0501 58.5989 89.3874 58.5989C88.7154 58.5989 88.1787 58.8089 87.7774 59.2289C87.3854 59.6489 87.1894 60.2603 87.1894 61.0629V65.3049H85.9154V57.6329H87.1894V58.7249C87.4414 58.3329 87.7821 58.0296 88.2114 57.8149C88.6501 57.6003 89.1307 57.4929 89.6534 57.4929ZM101.644 54.9449V65.3049H100.37V54.9449H101.644ZM109.974 56.3869C109.731 56.3869 109.526 56.3029 109.358 56.1349C109.19 55.9669 109.106 55.7616 109.106 55.5189C109.106 55.2763 109.19 55.0709 109.358 54.9029C109.526 54.7349 109.731 54.6509 109.974 54.6509C110.207 54.6509 110.403 54.7349 110.562 54.9029C110.73 55.0709 110.814 55.2763 110.814 55.5189C110.814 55.7616 110.73 55.9669 110.562 56.1349C110.403 56.3029 110.207 56.3869 109.974 56.3869ZM110.59 57.6329V65.3049H109.316V57.6329H110.59ZM121.999 57.4929C122.932 57.4929 123.688 57.7776 124.267 58.3469C124.846 58.9069 125.135 59.7189 125.135 60.7829V65.3049H123.875V60.9649C123.875 60.1996 123.684 59.6163 123.301 59.2149C122.918 58.8043 122.396 58.5989 121.733 58.5989C121.061 58.5989 120.524 58.8089 120.123 59.2289C119.731 59.6489 119.535 60.2603 119.535 61.0629V65.3049H118.261V57.6329H119.535V58.7249C119.787 58.3329 120.128 58.0296 120.557 57.8149C120.996 57.6003 121.476 57.4929 121.999 57.4929ZM139.716 61.1749C139.716 61.4176 139.702 61.6743 139.674 61.9449H133.542C133.589 62.7009 133.846 63.2936 134.312 63.7229C134.788 64.1429 135.362 64.3529 136.034 64.3529C136.585 64.3529 137.042 64.2269 137.406 63.9749C137.78 63.7136 138.041 63.3683 138.19 62.9389H139.562C139.357 63.6763 138.946 64.2783 138.33 64.7449C137.714 65.2023 136.949 65.4309 136.034 65.4309C135.306 65.4309 134.653 65.2676 134.074 64.9409C133.505 64.6143 133.057 64.1523 132.73 63.5549C132.404 62.9483 132.24 62.2483 132.24 61.4549C132.24 60.6616 132.399 59.9663 132.716 59.3689C133.034 58.7716 133.477 58.3143 134.046 57.9969C134.625 57.6703 135.288 57.5069 136.034 57.5069C136.762 57.5069 137.406 57.6656 137.966 57.9829C138.526 58.3003 138.956 58.7389 139.254 59.2989C139.562 59.8496 139.716 60.4749 139.716 61.1749ZM138.4 60.9089C138.4 60.4236 138.293 60.0083 138.078 59.6629C137.864 59.3083 137.57 59.0423 137.196 58.8649C136.832 58.6783 136.426 58.5849 135.978 58.5849C135.334 58.5849 134.784 58.7903 134.326 59.2009C133.878 59.6116 133.622 60.1809 133.556 60.9089H138.4ZM159.294 57.5069C159.957 57.5069 160.536 57.6516 161.03 57.9409C161.534 58.2303 161.908 58.5943 162.15 59.0329V57.6329H163.438V65.4729C163.438 66.1729 163.289 66.7936 162.99 67.3349C162.692 67.8856 162.262 68.3149 161.702 68.6229C161.152 68.9309 160.508 69.0849 159.77 69.0849C158.762 69.0849 157.922 68.8469 157.25 68.3709C156.578 67.8949 156.182 67.2463 156.06 66.4249H157.32C157.46 66.8916 157.75 67.2649 158.188 67.5449C158.627 67.8343 159.154 67.9789 159.77 67.9789C160.47 67.9789 161.04 67.7596 161.478 67.3209C161.926 66.8823 162.15 66.2663 162.15 65.4729V63.8629C161.898 64.3109 161.525 64.6843 161.03 64.9829C160.536 65.2816 159.957 65.4309 159.294 65.4309C158.613 65.4309 157.992 65.2629 157.432 64.9269C156.882 64.5909 156.448 64.1196 156.13 63.5129C155.813 62.9063 155.654 62.2156 155.654 61.4409C155.654 60.6569 155.813 59.9709 156.13 59.3829C156.448 58.7856 156.882 58.3236 157.432 57.9969C157.992 57.6703 158.613 57.5069 159.294 57.5069ZM162.15 61.4549C162.15 60.8763 162.034 60.3723 161.8 59.9429C161.567 59.5136 161.25 59.1869 160.848 58.9629C160.456 58.7296 160.022 58.6129 159.546 58.6129C159.07 58.6129 158.636 58.7249 158.244 58.9489C157.852 59.1729 157.54 59.4996 157.306 59.9289C157.073 60.3583 156.956 60.8623 156.956 61.4409C156.956 62.0289 157.073 62.5423 157.306 62.9809C157.54 63.4103 157.852 63.7416 158.244 63.9749C158.636 64.1989 159.07 64.3109 159.546 64.3109C160.022 64.3109 160.456 64.1989 160.848 63.9749C161.25 63.7416 161.567 63.4103 161.8 62.9809C162.034 62.5423 162.15 62.0336 162.15 61.4549ZM172.365 58.8789C172.589 58.4403 172.907 58.0996 173.317 57.8569C173.737 57.6143 174.246 57.4929 174.843 57.4929V58.8089H174.507C173.079 58.8089 172.365 59.5836 172.365 61.1329V65.3049H171.091V57.6329H172.365V58.8789ZM185.16 65.4309C184.441 65.4309 183.788 65.2676 183.2 64.9409C182.621 64.6143 182.164 64.1523 181.828 63.5549C181.501 62.9483 181.338 62.2483 181.338 61.4549C181.338 60.6709 181.506 59.9803 181.842 59.3829C182.187 58.7763 182.654 58.3143 183.242 57.9969C183.83 57.6703 184.488 57.5069 185.216 57.5069C185.944 57.5069 186.602 57.6703 187.19 57.9969C187.778 58.3143 188.24 58.7716 188.576 59.3689C188.921 59.9663 189.094 60.6616 189.094 61.4549C189.094 62.2483 188.917 62.9483 188.562 63.5549C188.217 64.1523 187.745 64.6143 187.148 64.9409C186.551 65.2676 185.888 65.4309 185.16 65.4309ZM185.16 64.3109C185.617 64.3109 186.047 64.2036 186.448 63.9889C186.849 63.7743 187.171 63.4523 187.414 63.0229C187.666 62.5936 187.792 62.0709 187.792 61.4549C187.792 60.8389 187.671 60.3163 187.428 59.8869C187.185 59.4576 186.868 59.1403 186.476 58.9349C186.084 58.7203 185.659 58.6129 185.202 58.6129C184.735 58.6129 184.306 58.7203 183.914 58.9349C183.531 59.1403 183.223 59.4576 182.99 59.8869C182.757 60.3163 182.64 60.8389 182.64 61.4549C182.64 62.0803 182.752 62.6076 182.976 63.0369C183.209 63.4663 183.517 63.7883 183.9 64.0029C184.283 64.2083 184.703 64.3109 185.16 64.3109ZM195.793 61.4549C195.793 60.6616 195.952 59.9709 196.269 59.3829C196.586 58.7856 197.025 58.3236 197.585 57.9969C198.154 57.6703 198.803 57.5069 199.531 57.5069C200.474 57.5069 201.248 57.7356 201.855 58.1929C202.471 58.6503 202.877 59.2849 203.073 60.0969H201.701C201.57 59.6303 201.314 59.2616 200.931 58.9909C200.558 58.7203 200.091 58.5849 199.531 58.5849C198.803 58.5849 198.215 58.8369 197.767 59.3409C197.319 59.8356 197.095 60.5403 197.095 61.4549C197.095 62.3789 197.319 63.0929 197.767 63.5969C198.215 64.1009 198.803 64.3529 199.531 64.3529C200.091 64.3529 200.558 64.2223 200.931 63.9609C201.304 63.6996 201.561 63.3263 201.701 62.8409H203.073C202.868 63.6249 202.457 64.2549 201.841 64.7309C201.225 65.1976 200.455 65.4309 199.531 65.4309C198.803 65.4309 198.154 65.2676 197.585 64.9409C197.025 64.6143 196.586 64.1523 196.269 63.5549C195.952 62.9576 195.793 62.2576 195.793 61.4549ZM217.273 61.1749C217.273 61.4176 217.259 61.6743 217.231 61.9449H211.099C211.145 62.7009 211.402 63.2936 211.869 63.7229C212.345 64.1429 212.919 64.3529 213.591 64.3529C214.141 64.3529 214.599 64.2269 214.963 63.9749C215.336 63.7136 215.597 63.3683 215.747 62.9389H217.119C216.913 63.6763 216.503 64.2783 215.887 64.7449C215.271 65.2023 214.505 65.4309 213.591 65.4309C212.863 65.4309 212.209 65.2676 211.631 64.9409C211.061 64.6143 210.613 64.1523 210.287 63.5549C209.96 62.9483 209.797 62.2483 209.797 61.4549C209.797 60.6616 209.955 59.9663 210.273 59.3689C210.59 58.7716 211.033 58.3143 211.603 57.9969C212.181 57.6703 212.844 57.5069 213.591 57.5069C214.319 57.5069 214.963 57.6656 215.523 57.9829C216.083 58.3003 216.512 58.7389 216.811 59.2989C217.119 59.8496 217.273 60.4749 217.273 61.1749ZM215.957 60.9089C215.957 60.4236 215.849 60.0083 215.635 59.6629C215.42 59.3083 215.126 59.0423 214.753 58.8649C214.389 58.6783 213.983 58.5849 213.535 58.5849C212.891 58.5849 212.34 58.7903 211.883 59.2009C211.435 59.6116 211.178 60.1809 211.113 60.9089H215.957ZM225.728 58.8789C225.952 58.4403 226.27 58.0996 226.68 57.8569C227.1 57.6143 227.609 57.4929 228.206 57.4929V58.8089H227.87C226.442 58.8089 225.728 59.5836 225.728 61.1329V65.3049H224.454V57.6329H225.728V58.8789ZM235.835 56.3869C235.592 56.3869 235.387 56.3029 235.219 56.1349C235.051 55.9669 234.967 55.7616 234.967 55.5189C234.967 55.2763 235.051 55.0709 235.219 54.9029C235.387 54.7349 235.592 54.6509 235.835 54.6509C236.068 54.6509 236.264 54.7349 236.423 54.9029C236.591 55.0709 236.675 55.2763 236.675 55.5189C236.675 55.7616 236.591 55.9669 236.423 56.1349C236.264 56.3029 236.068 56.3869 235.835 56.3869ZM236.451 57.6329V65.3049H235.177V57.6329H236.451ZM251.122 61.1749C251.122 61.4176 251.108 61.6743 251.08 61.9449H244.948C244.995 62.7009 245.252 63.2936 245.718 63.7229C246.194 64.1429 246.768 64.3529 247.44 64.3529C247.991 64.3529 248.448 64.2269 248.812 63.9749C249.186 63.7136 249.447 63.3683 249.596 62.9389H250.968C250.763 63.6763 250.352 64.2783 249.736 64.7449C249.12 65.2023 248.355 65.4309 247.44 65.4309C246.712 65.4309 246.059 65.2676 245.48 64.9409C244.911 64.6143 244.463 64.1523 244.136 63.5549C243.81 62.9483 243.646 62.2483 243.646 61.4549C243.646 60.6616 243.805 59.9663 244.122 59.3689C244.44 58.7716 244.883 58.3143 245.452 57.9969C246.031 57.6703 246.694 57.5069 247.44 57.5069C248.168 57.5069 248.812 57.6656 249.372 57.9829C249.932 58.3003 250.362 58.7389 250.66 59.2989C250.968 59.8496 251.122 60.4749 251.122 61.1749ZM249.806 60.9089C249.806 60.4236 249.699 60.0083 249.484 59.6629C249.27 59.3083 248.976 59.0423 248.602 58.8649C248.238 58.6783 247.832 58.5849 247.384 58.5849C246.74 58.5849 246.19 58.7903 245.732 59.2009C245.284 59.6116 245.028 60.1809 244.962 60.9089H249.806ZM259.858 58.6829V63.2049C259.858 63.5783 259.937 63.8443 260.096 64.0029C260.255 64.1523 260.53 64.2269 260.922 64.2269H261.86V65.3049H260.712C260.003 65.3049 259.471 65.1416 259.116 64.8149C258.761 64.4883 258.584 63.9516 258.584 63.2049V58.6829H257.59V57.6329H258.584V55.7009H259.858V57.6329H261.86V58.6829H259.858Z" fill="white"/>
</svg>
